<?xml version="1.0" encoding="utf-8"?>
<!-- Generator: Adobe Illustrator 24.2.3, SVG Export Plug-In . SVG Version: 6.00 Build 0)  -->
<svg version="1.1" id="Layer_1" xmlns="http://www.w3.org/2000/svg" xmlns:xlink="http://www.w3.org/1999/xlink" x="0px" y="0px"
	 viewBox="0 0 1366 479" style="enable-background:new 0 0 1366 479;" xml:space="preserve">
<style type="text/css">
	.st0{fill-rule:evenodd;clip-rule:evenodd;fill:#FFFFFF;}
	.st1{fill-rule:evenodd;clip-rule:evenodd;fill:url(#Path_1_);}
	.st2{fill:url(#Path_2_);}
	.st3{fill-rule:evenodd;clip-rule:evenodd;fill:url(#Combined-Shape_1_);}
	.st4{fill-rule:evenodd;clip-rule:evenodd;fill:url(#Combined-Shape_2_);}
</style>
<path id="Fill-4" class="st0" d="M786.5,316.1c0,6.8-2.2,9.2-9.2,9.2h-30.7c-6.8,0-9.2-2.2-9.2-8.9l0.5-74l-47.9,52
	c-4.6,5.1-7.5,5.1-12.1,0L630,242.7l0.2,73.7c0,6.8-2.4,8.9-9.2,8.9h-29.7c-6.8,0-9.2-2.4-9.2-9.2V196.9c0-6.8,1.7-10.6,6.8-15.5
	l17.2-16.2c5.1-4.8,8.5-4.6,13.3,0.5l64.8,66.5l65-66.5c5.1-5.1,8.2-5.1,13.1-0.5l17.6,16.7c4.8,4.6,6.5,8.7,6.5,15.5v118.7
	L786.5,316.1L786.5,316.1z"/>
<path id="Fill-6" class="st0" d="M835.6,179.5c0-6.8,2.2-9.2,9.2-9.2h115.8c6.8,0,9.2,2.2,9.2,9.2v22c0,6.8-2.2,9.2-8.9,9.2
	l-77.8-0.5v16l68.4-0.2c6.8,0,8.9,2.4,8.9,9.2v24.4c0,6.8-2.2,9.2-8.9,9.2l-68.4-0.5v16.9l78.8-0.2c6.8,0,8.9,2.4,8.9,9.2V316
	c0,6.8-2.4,9.2-9.2,9.2H844.8c-6.8,0-9.2-2.4-9.2-9.2V179.5z"/>
<path id="Fill-8" class="st0" d="M1140.5,277.4c6.8,0,8.9,2.2,8.9,9.2v29.2c0,6.8-2.2,9.2-9.2,9.2h-113.8c-6.8,0-9.2-2.4-9.2-9.2
	V179.3c0-6.8,2.4-9.2,9.2-9.2h31.7c6.8,0,9.2,2.2,9.2,8.9l-0.2,98.6L1140.5,277.4z"/>
<g id="Group-12" transform="translate(1186.664866, 169.336561)">
	<path id="Fill-10" class="st0" d="M50.8,109.5h61.6L124,97.7V59.5l-12.1-12.3H50.8V109.5z M10.2,155.7c-6.8,0-9.2-2.4-9.2-9.2V10.2
		C1,3.4,3.4,1,10.2,1h117.5c6.8,0,10.6,1.5,15.5,6.3L171.6,36c4.8,4.8,6.3,8.7,6.3,15.5v53.9c0,6.8-1.7,10.9-6.5,15.7l-28,28
		c-4.8,4.8-8.9,6.5-15.7,6.5L10.2,155.7L10.2,155.7z"/>
</g>
<g id="Layer_1_3_">
	
		<linearGradient id="Path_1_" gradientUnits="userSpaceOnUse" x1="-4108.2251" y1="11.3712" x2="-4107.3931" y2="10.88" gradientTransform="matrix(473.706 0 0 473.707 1946134 -5031.1807)">
		<stop  offset="0" style="stop-color:#C93554"/>
		<stop  offset="1" style="stop-color:#DA374A"/>
	</linearGradient>
	<path id="Path_5_" class="st1" d="M239.4,2.6C108.5,2.6,2.5,108.6,2.5,239.5c0,130.8,106,236.9,236.9,236.9s236.9-106,236.9-236.9
		C476.2,108.6,370.2,2.6,239.4,2.6L239.4,2.6z"/>
	
		<linearGradient id="Path_2_" gradientUnits="userSpaceOnUse" x1="-4107.4531" y1="10.8179" x2="-4108.2837" y2="11.3171" gradientTransform="matrix(476.706 0 0 476.707 1958483.5 -5035.6807)">
		<stop  offset="0" style="stop-color:#DA3740"/>
		<stop  offset="1" style="stop-color:#DA3743"/>
	</linearGradient>
	<path id="Path_4_" class="st2" d="M239.4,1.1C107.7,1.1,1,107.8,1,239.5c0,131.6,106.7,238.3,238.4,238.3s238.3-106.7,238.3-238.3
		C477.7,107.8,371,1.1,239.4,1.1z M239.4,4.1c130,0,235.4,105.4,235.4,235.4S369.4,474.9,239.4,474.9S4,369.4,4,239.5
		C4,109.5,109.4,4.1,239.4,4.1z"/>
</g>
<g id="Layer_2_3_">
	<g>
		<path id="Fill-1_2_" class="st0" d="M343.2,213.4l-26.4-78.3c-2.8-8.1-10.4-13.6-19-13.7h-0.1c-8.6,0-16.2,5.4-19,13.6
			l-39.4,114.5L199.9,135c-2.8-8.1-10.4-13.6-19-13.6h-0.1c-8.6,0-16.2,5.5-19,13.7l-26.4,78.3H89c-11.1,0-20.1,9-20.1,20.1
			s9,20.1,20.1,20.1h32.9l-18.4,54.6c-3.5,10.5,2.1,21.9,12.6,25.5c2.1,0.7,4.3,1.1,6.4,1.1c8.4,0,16.2-5.3,19-13.7L181.1,204
			l39.2,114c2.8,8.1,10.4,13.6,19,13.6s16.2-5.4,19-13.6l39.2-114l39.6,117.2c3.5,10.5,14.9,16.2,25.5,12.6
			c10.5-3.5,16.2-14.9,12.6-25.5l-18.4-54.6h32.9c11.1,0,20.1-9,20.1-20.1s-9-20.1-20.1-20.1L343.2,213.4L343.2,213.4z"/>
		
			<linearGradient id="Combined-Shape_1_" gradientUnits="userSpaceOnUse" x1="-4031.5862" y1="33.7188" x2="-4031.1433" y2="33.2559" gradientTransform="matrix(48.3521 0 0 142.3942 195083.1406 -4559.8496)">
			<stop  offset="0" style="stop-color:#D33651;stop-opacity:0"/>
			<stop  offset="0.2899" style="stop-color:#D43650;stop-opacity:0.3265"/>
			<stop  offset="0.6542" style="stop-color:#D6364F"/>
		</linearGradient>
		<path id="Combined-Shape_5_" class="st3" d="M161.4,136.8c0,0,0,0.2-0.3,1.6c-0.2,1.1-0.3,2.2-0.3,3.4c0,2,0.2,3.8,0.7,5.6
			l20.4,58.8l-24.2,73l-24.1-65.6l25.3-73.8l0.6,1.8L161.4,136.8z"/>
		
			<linearGradient id="Combined-Shape_2_" gradientUnits="userSpaceOnUse" x1="-4031.4512" y1="33.717" x2="-4031.0203" y2="33.2673" gradientTransform="matrix(48.2768 0 0 142.3942 194889.7656 -4559.8496)">
			<stop  offset="0" style="stop-color:#D33651;stop-opacity:0"/>
			<stop  offset="0.2899" style="stop-color:#D43650;stop-opacity:0.3265"/>
			<stop  offset="0.6542" style="stop-color:#D6364F"/>
		</linearGradient>
		<path id="Combined-Shape_4_" class="st4" d="M278,136.8c0,0,0,0.2-0.3,1.6c-0.2,1.1-0.3,2.2-0.3,3.4c0,2.1,0.3,4.1,0.9,6
			l20.2,58.7l-24.2,72.7l-24.1-65.6l25.3-73.8l0.6,1.8L278,136.8z"/>
	</g>
</g>
</svg>
