<svg width="160" height="32" viewBox="0 0 160 32" fill="none" xmlns="http://www.w3.org/2000/svg">
<path d="M26.0536 1.97255C33.9924 1.97255 40.4281 8.25283 40.4281 16C40.4281 23.7471 33.9924 30.0273 26.0536 30.0273C18.1149 30.0273 1.51776e-06 19.726 1.83947e-06 15.9999C2.16118e-06 12.2739 18.1149 1.97255 26.0536 1.97255Z" fill="url(#paint0_linear_904_1235)"/>
<path d="M34.9255 26.0817L34.9256 5.91844C32.3388 3.47579 28.8147 1.97266 24.9308 1.97266C22.7977 1.97266 19.93 2.88252 16.8764 4.24093C15.4319 4.48771 12.5475 5.28421 10.4215 5.92937C9.64458 6.16516 9.6081 7.17673 10.3561 7.48924C12.4455 8.36219 14.6682 9.30205 16.1379 9.92526C16.8222 10.2154 16.8651 11.1414 16.208 11.4864C14.6544 12.302 12.2148 13.5664 9.99276 14.6482C8.95423 15.1538 8.95423 16.6614 9.99276 17.167C12.2831 18.282 14.8046 19.591 16.3487 20.4027C16.9787 20.7339 16.9706 21.6078 16.3332 21.9251C14.9272 22.6251 12.7184 23.7008 10.595 24.6353C9.85142 24.9626 9.88475 25.9834 10.665 26.2157C12.7467 26.8355 15.4969 27.5567 16.9051 27.7719C19.948 29.1233 22.8044 30.0275 24.9308 30.0275C28.8147 30.0275 32.3388 28.5243 34.9255 26.0817Z" fill="url(#paint1_linear_904_1235)"/>
<path d="M26.0859 4.16471C32.8288 4.16471 38.2949 9.46369 38.2949 16.0003C38.2949 22.537 32.8288 27.8359 26.0859 27.8359C25.1061 27.8359 21.6791 26.9541 19.2002 26.216C18.4199 25.9837 18.3829 24.955 19.122 24.6181C21.4522 23.5559 24.1849 22.1623 26.0274 21.2016C26.761 20.8192 26.6069 19.7555 25.7956 19.5767C23.0223 18.9655 18.3691 17.894 15.0503 16.8915C13.9416 16.5565 13.9416 15.2592 15.0503 14.9243C18.285 13.9471 22.7873 12.9045 25.5811 12.2863C26.4166 12.1015 26.5486 10.987 25.7746 10.6287C23.8764 9.74991 21.1635 8.50654 18.8823 7.50931C18.1398 7.1847 18.1798 6.16542 18.9567 5.92964C21.506 5.15598 25.1461 4.16471 26.0859 4.16471Z" fill="url(#paint2_linear_904_1235)"/>
<path d="M27.6553 0C36.6824 3.85062e-07 44.0004 7.16345 44.0004 16C44.0004 24.8365 36.6824 32 27.6553 32C26.5875 32 23.5843 31.7989 21.1909 31.4416C20.3492 31.3159 20.3017 30.3402 21.0997 30.0503C23.4412 29.1997 25.8094 28.2809 27.1949 27.7361C27.5933 27.5794 27.5606 27.0099 27.1495 26.8888C26.3898 26.6651 25.2904 26.3305 23.8534 25.8664C23.2441 25.6695 23.2363 24.8182 23.8356 24.5941C26.6874 23.5279 30.464 21.9498 32.9618 20.8873C33.7707 20.5432 33.6363 19.3878 32.77 19.2237C30.3016 18.7562 29.6331 18.0375 26.4597 17.3195C24.7924 16.9422 24.7924 15.0578 26.4597 14.6805C29.6331 13.9625 30.3016 13.2438 32.77 12.7763C33.6363 12.6122 33.7707 11.4568 32.9618 11.1127C30.464 10.0502 26.6874 8.47209 23.8356 7.40592C23.2363 7.18184 23.2441 6.33048 23.8534 6.13365C25.2904 5.66946 26.3898 5.3349 27.1495 5.11116C27.5606 4.99008 27.5933 4.42055 27.1949 4.26391C25.8094 3.71906 23.4412 2.80028 21.0997 1.94973C20.3017 1.65985 20.3492 0.684111 21.1909 0.558444C23.5843 0.201102 26.5875 -4.55461e-08 27.6553 0Z" fill="#CAF5FF"/>
<path d="M58 23.8728L60.2184 8.12715H63.8656L63.0008 14.1881H67.1368L68.0016 8.12715H71.6487L69.4304 23.8728H65.7832L66.6292 17.8755H62.4932L61.6472 23.8728H58Z" fill="#CAF5FF"/>
<path d="M70.3705 23.8728L76.7249 8.12715H81.2745L83.192 23.8728H79.4133L79.2065 21.3722H75.0141L74.1117 23.8728H70.3705ZM76.3677 17.6848H78.8681L78.4733 11.6238L76.3677 17.6848Z" fill="#CAF5FF"/>
<path d="M84.2633 23.8728L86.4817 8.12715H91.9525C93.256 8.12715 94.2649 8.36026 94.9793 8.82649C95.6937 9.29271 96.1888 9.9426 96.4645 10.7762C96.7402 11.5956 96.8781 12.5492 96.8781 13.6371C96.8781 14.0892 96.8593 14.5625 96.8217 15.057C96.7966 15.5514 96.7465 16.06 96.6713 16.5828C96.4206 18.4053 95.9945 19.8534 95.3929 20.9272C94.8038 21.9868 94.0268 22.7426 93.0617 23.1947C92.1092 23.6468 90.9624 23.8728 89.6213 23.8728H84.2633ZM88.4369 20.1854H90.0161C90.8809 20.1854 91.5452 19.8534 92.0089 19.1894C92.4726 18.5254 92.811 17.4375 93.0241 15.9258C93.0868 15.4313 93.1369 15.0075 93.1745 14.6543C93.2121 14.287 93.2309 14.0115 93.2309 13.8278C93.2309 13.0366 93.0554 12.5068 92.7045 12.2384C92.3661 11.9559 91.8146 11.8146 91.0501 11.8146H89.6025L88.4369 20.1854Z" fill="#CAF5FF"/>
<path d="M102.712 24C101.985 24 101.314 23.9294 100.7 23.7881C100.086 23.6468 99.5531 23.3925 99.1019 23.0252C98.6507 22.6437 98.2998 22.1139 98.0491 21.4358C97.811 20.7576 97.6919 19.8817 97.6919 18.8079C97.6919 18.3276 97.717 17.7907 97.7671 17.1974C97.8173 16.5898 97.8862 16.0035 97.9739 15.4384C98.2497 13.5311 98.6633 12.0406 99.2147 10.9669C99.7662 9.87903 100.506 9.11611 101.433 8.67815C102.373 8.22605 103.551 8 104.967 8C105.682 8 106.34 8.07064 106.941 8.21192C107.556 8.3532 108.088 8.62163 108.539 9.01722C108.991 9.39868 109.342 9.94967 109.592 10.6702C109.855 11.3766 109.987 12.302 109.987 13.4464C109.987 13.8843 109.962 14.4 109.912 14.9934C109.862 15.5868 109.793 16.1731 109.705 16.7523C109.505 18.2358 109.223 19.4508 108.859 20.3974C108.508 21.3439 108.057 22.0786 107.505 22.6013C106.954 23.1241 106.283 23.4914 105.494 23.7033C104.704 23.9011 103.777 24 102.712 24ZM103.275 20.2914C103.902 20.2914 104.391 20.143 104.742 19.8464C105.105 19.5355 105.387 19.0834 105.588 18.4901C105.788 17.8826 105.951 17.1267 106.077 16.2225C106.152 15.6857 106.215 15.17 106.265 14.6755C106.315 14.181 106.34 13.7854 106.34 13.4887C106.34 12.7541 106.189 12.2737 105.889 12.0477C105.6 11.8075 105.124 11.6874 104.46 11.6874C103.871 11.6874 103.395 11.8146 103.031 12.0689C102.668 12.3091 102.379 12.74 102.166 13.3616C101.953 13.9691 101.765 14.838 101.602 15.9682C101.527 16.4768 101.464 16.9713 101.414 17.4517C101.364 17.932 101.339 18.3135 101.339 18.596C101.339 19.2459 101.483 19.691 101.772 19.9311C102.072 20.1713 102.574 20.2914 103.275 20.2914Z" fill="#CAF5FF"/>
<path d="M115.761 24C114.181 24 112.991 23.6115 112.189 22.8344C111.399 22.0433 111.004 20.7788 111.004 19.0411C111.004 18.6737 111.029 18.2711 111.079 17.8331C111.13 17.381 111.186 16.9219 111.249 16.4556L112.433 8.12715H116.08L114.821 17.0914C114.783 17.3881 114.745 17.6706 114.708 17.9391C114.67 18.2075 114.651 18.4547 114.651 18.6808C114.651 19.2035 114.77 19.6062 115.009 19.8887C115.247 20.1713 115.673 20.3126 116.287 20.3126C116.726 20.3126 117.089 20.2208 117.377 20.0371C117.666 19.8534 117.904 19.5285 118.092 19.0623C118.28 18.596 118.43 17.9391 118.543 17.0914L119.803 8.12715H123.45L122.096 17.7272C121.908 19.0552 121.639 20.136 121.288 20.9695C120.937 21.789 120.498 22.4177 119.972 22.8556C119.458 23.2936 118.85 23.5974 118.148 23.7669C117.446 23.9223 116.65 24 115.761 24Z" fill="#CAF5FF"/>
<path d="M123.117 23.8728L125.335 8.12715H128.982L128.136 14.1245H129.565L132.836 8.12715H136.54L132.235 16.053L134.698 23.8728H131.088L129.246 17.8119H127.61L126.764 23.8728H123.117Z" fill="#CAF5FF"/>
<path d="M138.859 24C138.508 24 138.126 23.9576 137.712 23.8728C137.311 23.774 136.935 23.5903 136.584 23.3219C136.233 23.0534 135.964 22.672 135.776 22.1775C135.601 21.6689 135.569 21.0119 135.682 20.2066L136.829 12.0901C136.967 11.087 137.224 10.3029 137.6 9.73775C137.988 9.1585 138.464 8.74879 139.028 8.50861C139.605 8.2543 140.232 8.12715 140.908 8.12715C141.848 8.12715 142.788 8.15541 143.728 8.21192C144.668 8.26843 145.633 8.34614 146.624 8.44503L146.135 11.9205H141.472C141.084 11.9205 140.808 12.0265 140.645 12.2384C140.495 12.4362 140.388 12.7329 140.326 13.1285L140.194 14.1245L144.819 14.3364L144.368 17.6L139.668 17.8119L139.498 19.0411C139.448 19.3943 139.486 19.6698 139.611 19.8676C139.749 20.0512 140 20.143 140.363 20.143H144.988L144.499 23.6185C143.622 23.7174 142.726 23.8022 141.811 23.8728C140.896 23.9576 139.912 24 138.859 24Z" fill="#CAF5FF"/>
<path d="M146.332 23.8728L148.551 8.12715H151.446L155.112 16.9007L156.353 8.12715H160L157.782 23.8728H154.886L151.22 15.0993L149.98 23.8728H146.332Z" fill="#CAF5FF"/>
<defs>
<linearGradient id="paint0_linear_904_1235" x1="1.83947e-06" y1="15.9999" x2="40.4281" y2="16" gradientUnits="userSpaceOnUse">
<stop stop-color="#83BAC7"/>
<stop offset="1" stop-color="#2F4A54" stop-opacity="0"/>
</linearGradient>
<linearGradient id="paint1_linear_904_1235" x1="9" y1="15.5" x2="33.5" y2="15" gradientUnits="userSpaceOnUse">
<stop stop-color="#83BAC7"/>
<stop offset="1" stop-color="#2F4A54" stop-opacity="0"/>
</linearGradient>
<linearGradient id="paint2_linear_904_1235" x1="14.5" y1="16.5" x2="32" y2="16" gradientUnits="userSpaceOnUse">
<stop stop-color="#83BAC7"/>
<stop offset="1" stop-color="#2F4A54" stop-opacity="0"/>
</linearGradient>
</defs>
</svg>
